<?xml version="1.0" encoding="UTF-8"?>
<svg id="Layer_1" xmlns="http://www.w3.org/2000/svg" version="1.1" viewBox="0 0 48 48">
  <!-- Generator: Adobe Illustrator 30.0.0, SVG Export Plug-In . SVG Version: 2.1.1 Build 123)  -->
  <defs>
    <style>
      .st0 {
        fill: #27b9ab;
      }
    </style>
  </defs>
  <path class="st0" d="M38,20.61l-.79-4.75c-.3-1.82-1.87-3.14-3.71-3.14H14.52c-1.85,0-3.4,1.32-3.71,3.14l-.79,4.75c-.11.67.07,1.32.5,1.83.2.22.43.41.69.54v8.52c0,2.08,1.68,3.76,3.76,3.76h18.05c2.08,0,3.76-1.68,3.76-3.76v-8.52c.26-.14.5-.32.69-.54.43-.51.62-1.17.5-1.83h.05s-.01,0-.01,0ZM12.29,16.12c.18-1.1,1.11-1.88,2.23-1.88h18.98c1.11,0,2.04.79,2.23,1.88l.79,4.75c.04.22,0,.43-.16.62-.15.16-.35.27-.57.27h-5.13c-.2,0-.39-.07-.53-.22l-4.51-4.51c-.43-.43-1.03-.67-1.6-.67s-1.16.22-1.6.67l-4.51,4.51c-.14.14-.33.22-.53.22h-5.13c-.22,0-.43-.09-.57-.27-.15-.16-.21-.39-.16-.62l.79-4.75s-.04,0-.04,0ZM21.76,33.8v-6.77c0-.42.33-.75.75-.75h3.01c.42,0,.75.33.75.75v6.77s-4.51,0-4.51,0ZM33.04,33.8h-5.27v-6.77c0-1.25-1-2.25-2.25-2.25h-3.01c-1.25,0-2.25,1-2.25,2.25v6.77h-5.27c-1.25,0-2.25-1-2.25-2.25v-8.28h4.65c.58,0,1.17-.25,1.6-.67l4.51-4.51c.3-.3.77-.3,1.06,0l4.51,4.51c.42.42,1,.67,1.6.67h4.65v8.28c0,1.25-1,2.25-2.25,2.25h-.01Z"/>
  <path class="st0" d="M32.29,24.77h-1.51c-.83,0-1.51.68-1.51,1.51v3.01c0,.83.68,1.51,1.51,1.51h1.51c.83,0,1.51-.68,1.51-1.51v-3.01c0-.83-.68-1.51-1.51-1.51ZM32.29,30.03v-.75h-1.51v-3.01h1.51v3.01h0s0,.75,0,.75Z"/>
  <path class="st0" d="M17.24,24.77h-1.51c-.83,0-1.51.68-1.51,1.51v3.01c0,.83.68,1.51,1.51,1.51h1.51c.83,0,1.51-.68,1.51-1.51v-3.01c0-.83-.68-1.51-1.51-1.51ZM17.24,30.03v-.75h-1.51v-3.01h1.51v3.01h0v.75Z"/>
</svg>