<?xml version="1.0" encoding="UTF-8"?>
<svg id="Layer_1" xmlns="http://www.w3.org/2000/svg" version="1.1" viewBox="0 0 48 48">
  <!-- Generator: Adobe Illustrator 30.0.0, SVG Export Plug-In . SVG Version: 2.1.1 Build 123)  -->
  <defs>
    <style>
      .st0 {
        fill: #27b9ab;
      }
    </style>
  </defs>
  <path class="st0" d="M13.48,28.35c-.03.38-.32.65-.7.62-.35-.03-.62-.32-.62-.7h-.85c0,.82.67,1.49,1.49,1.49s1.49-.67,1.49-1.49h-.85s.03.06.03.09h0Z"/>
  <path class="st0" d="M36.3,28.43c-.06.35-.38.62-.73.56s-.62-.38-.56-.73h-.85c0,.82.67,1.49,1.49,1.49s1.49-.67,1.49-1.49h-.85v.17h.01Z"/>
  <path class="st0" d="M38.88,28.23c0-1.76-1.44-3.19-3.22-3.19-.91,0-1.76.38-2.37,1.06-1.2,1.32-1.11,3.34.21,4.51H15c.06-.06.12-.12.17-.17,1.2-1.29,1.11-3.31-.17-4.51s-3.31-1.11-4.51.17-1.11,3.31.17,4.51h-4.57v.85h34.95v-.85h-3.19c.65-.58,1.03-1.47,1.03-2.37h0ZM12.86,30.6h-.03c-1.29,0-2.34-1.06-2.34-2.34s1.06-2.34,2.34-2.34h0c1.29,0,2.34,1.03,2.34,2.31.03,1.32-1.03,2.37-2.31,2.37ZM35.69,30.6h-.03c-1.29,0-2.34-1.06-2.34-2.34s1.06-2.34,2.34-2.34,2.34,1.03,2.34,2.34c.03,1.29-1.03,2.34-2.31,2.34Z"/>
  <path class="st0" d="M42.75,24.22h-.85l-1.7-1.7h.85l-.85-.85-5.98-.85h-11.92l-.85-2.55h-.85v2.55l-5.98-.85v-1.7l-.85,1.7-2.55-.85,2.55-1.7h11.92l3.4,2.55h2.55l-5.95-3.43h-15.32l-4.27,2.58v1.7l2.55.85h-2.55l-.85.85,1.7.85-.85.85h-.85v2.55l2.55,2.55h1.14c-.21-.7-.21-1.44,0-2.14.58-2.17,2.81-3.43,4.98-2.84,2.17.58,3.43,2.81,2.84,4.98h15c-.21-.7-.21-1.44,0-2.14.58-2.17,2.81-3.43,4.98-2.84,2.17.58,3.43,2.81,2.84,4.98h1.47l1.7-1.7-.85-1.7.85-.85v-.85h.01ZM40.7,28.5h-.12v-.24c0-2.73-2.2-4.92-4.92-4.92s-4.92,2.2-4.92,4.92v.24h-12.98v-.24c0-2.73-2.2-4.92-4.92-4.92s-4.92,2.2-4.92,4.92l-1.85-1.85h0v-1.35h.35l1.93-1.93-1.23-.62h6.77l-6.94-2.31v-.62l3.63-2.2h1.61l-2.93,1.96,4.92,1.64.15-.21,7.12,1.03v-.85l.24.73h12.48l4.63.67,2.75,2.75-.67.67.85,1.7-1.03.99h-.01Z"/>
</svg>