<?xml version="1.0" encoding="UTF-8"?>
<svg id="Layer_1" xmlns="http://www.w3.org/2000/svg" version="1.1" viewBox="0 0 48 48">
  <!-- Generator: Adobe Illustrator 30.0.0, SVG Export Plug-In . SVG Version: 2.1.1 Build 123)  -->
  <defs>
    <style>
      .st0 {
        fill: #27b9ab;
      }
    </style>
  </defs>
  <path class="st0" d="M16.02,34.16c-.45,0-.87-.17-1.2-.5-.62-.63-.67-1.64-.1-2.33l3.03-3.69c3.29-4.01,6.79-7.93,10.42-11.62l2.04-2.09c1.42-1.45,3.2-2.49,5.15-2.99.48-.12.99.02,1.34.37.35.36.49.87.37,1.37-.49,1.99-1.51,3.81-2.93,5.26l-2.04,2.09c-3.63,3.7-7.45,7.28-11.38,10.64l-3.61,3.09c-.31.26-.69.4-1.08.4h-.01ZM35.71,11.67s-.11,0-.16.02c-1.81.47-3.47,1.43-4.79,2.78l-2.04,2.09c-3.6,3.68-7.1,7.58-10.37,11.58l-3.03,3.69c-.31.38-.28.93.05,1.27.33.34.88.36,1.24.05l3.61-3.09c3.91-3.35,7.72-6.91,11.33-10.59l2.04-2.09c1.32-1.35,2.26-3.05,2.73-4.89.05-.22,0-.46-.16-.62-.12-.12-.27-.2-.45-.2Z"/>
  <path class="st0" d="M20.22,29.18l-.49-.6c.26-.23.52-.45.78-.68l.5.6c-.26.23-.52.46-.79.68ZM21.78,27.81l-.5-.59c.26-.23.51-.46.78-.69l.5.59c-.26.23-.51.46-.78.69ZM23.32,26.42l-.51-.59c.25-.23.51-.46.76-.7l.51.59c-.25.23-.51.47-.76.7ZM24.85,25.03l-.51-.58c.25-.23.5-.47.75-.71l.52.58c-.25.24-.5.47-.75.71h-.01ZM26.37,23.61l-.52-.58c.25-.24.5-.48.74-.71l.52.57c-.25.24-.5.48-.75.72h.01ZM27.87,22.17l-.54-.57c.25-.24.49-.48.74-.72l.54.57c-.25.24-.49.48-.74.72ZM29.34,20.71l-.54-.57.73-.73.54.56c-.24.25-.49.49-.73.73h0ZM30.81,19.24l-.55-.56.72-.74.55.56-.72.74ZM32.26,17.75l-.55-.56.72-.74.55.56s-.72.74-.72.74Z"/>
  <path class="st0" d="M23.93,21.5l-10.79-5.74c-.37-.2-.63-.56-.7-.99s.07-.85.37-1.16l.62-.63c.33-.33.8-.47,1.24-.36l14.4,3.54-5.15,5.34h0ZM14.38,13.36c-.14,0-.28.05-.39.16l-.62.63c-.12.13-.19.31-.15.48.02.17.13.33.29.41l10.29,5.47,3.8-3.94-13.08-3.21s-.09-.01-.13,0h0Z"/>
  <path class="st0" d="M33.51,36.08h-.21c-.41-.07-.78-.33-.97-.71l-4.76-9.51.69-.36,4.76,9.51c.08.15.23.26.4.29.17.02.35-.03.47-.15l.62-.63c.13-.14.19-.34.14-.52l-3.31-14.04.74-.19,3.31,14.04c.11.45-.03.94-.35,1.27l-.62.63c-.25.25-.58.39-.93.39h0v-.02Z"/>
  <path class="st0" d="M20.07,37.09h-.17c-.4-.05-.74-.29-.94-.64l-1.78-3.35.68-.37,1.77,3.35c.08.13.22.23.37.25.16.02.32-.03.44-.15l.67-.68c.13-.13.17-.32.13-.5l-1.14-4.52.74-.2,1.14,4.52c.11.45-.02.93-.34,1.24l-.67.68c-.24.25-.57.38-.91.38h.01Z"/>
  <path class="st0" d="M14.68,31.59l-3.08-1.8c-.38-.22-.63-.61-.7-1.06-.05-.45.09-.88.4-1.2l.75-.78c.35-.35.86-.5,1.33-.38l4.41,1.12-.19.76-4.41-1.12c-.22-.05-.45,0-.6.17l-.75.78c-.14.14-.21.34-.17.55.02.21.14.38.32.48l3.08,1.8-.38.68s-.01,0-.01,0Z"/>
  <path class="st0" d="M23.99,15.43l-.58-.52.59-.67c.11-.12.15-.28.14-.45-.02-.16-.1-.31-.23-.4-.15-.11-.31-.14-.47-.11-.15.03-.29.13-.37.27l-.83,1.45-.67-.39.83-1.45c.19-.33.51-.57.87-.64.37-.08.75,0,1.06.23.32.24.52.59.56.97.04.38-.08.76-.33,1.05l-.59.67s.01,0,.01,0Z"/>
  <path class="st0" d="M33.42,26.73l-.39-.68,1.42-.85c.14-.09.23-.22.27-.38.03-.16,0-.33-.1-.46-.11-.15-.25-.23-.4-.25-.16-.02-.32.03-.44.14l-.66.6-.51-.59.66-.6c.28-.25.66-.37,1.03-.34.37.04.72.24.94.56.23.33.32.72.24,1.1-.08.37-.31.7-.63.9,0,0-1.42.85-1.42.85Z"/>
</svg>