<?xml version="1.0" encoding="UTF-8"?>
<svg id="Layer_1" xmlns="http://www.w3.org/2000/svg" version="1.1" viewBox="0 0 48 48">
  <!-- Generator: Adobe Illustrator 30.0.0, SVG Export Plug-In . SVG Version: 2.1.1 Build 123)  -->
  <defs>
    <style>
      .st0 {
        fill: #27b8aa;
      }
    </style>
  </defs>
  <g id="Layer_1-2">
    <g>
      <path class="st0" d="M32.26,25.21c-2.11,0-3.84,1.72-3.84,3.84s1.72,3.84,3.84,3.84,3.84-1.72,3.84-3.84-1.72-3.84-3.84-3.84ZM32.26,31.88c-1.57,0-2.85-1.28-2.85-2.85s1.28-2.85,2.85-2.85,2.85,1.28,2.85,2.85-1.27,2.85-2.85,2.85Z"/>
      <path class="st0" d="M13.6,31.06c0,1.04.85,1.89,1.89,1.89s1.89-.85,1.89-1.89-.85-1.89-1.89-1.89-1.89.85-1.89,1.89ZM16.37,31.06c0,.48-.4.9-.9.9s-.9-.4-.9-.9.4-.9.9-.9.9.4.9.9Z"/>
      <path class="st0" d="M38.1,25.76v-4.84c0-.15-.02-.29-.06-.44l-2.26-7.48c-.12-.42-.51-.71-.96-.71h-9.04c-.46,0-.86.31-.97.76l-1.81,7.32c-.39,0-.68.01-1.04.04v-4.6c0-.55-.44-.98-.98-.99v-.45c0-.47-.22-.92-.61-1.19l-.75-.53c-.22-.16-.53-.11-.7.11s-.11.53.11.7l.75.53c.12.09.2.22.2.37v.45c-.55,0-.98.45-.98.99v4.8c-5.21.56-8.48,1.98-9.37,2.41-.35.16-.56.51-.56.9v1.65c0,.24.09.47.25.66l2.24,2.56c-.4.67-.62,1.45-.62,2.29,0,2.5,2.04,4.52,4.52,4.52,2.32,0,4.25-1.77,4.5-4.03h4.66c.27,0,.5-.22.5-.5s-.22-.5-.5-.5h-4.66c-.21-1.89-1.58-3.42-3.38-3.89l.06-.12c.1-.19.3-.31.51-.31h6.22c.27,0,.5-.22.5-.5v-4.82l1.5-6.08h7.89l1.04,4.76-6.65.63c-.41.04-.78.25-1.03.57l-2.01,2.62c-.16.21-.12.53.09.7.09.06.2.1.3.1.15,0,.3-.06.4-.2l2-2.62c.09-.11.21-.17.35-.19l7.21-.68c.14-.01.27-.09.35-.2.09-.11.11-.26.09-.4l-1.26-5.71c-.05-.22-.25-.39-.48-.39h-8.04l.14-.57h9.04l2.26,7.48s.02.1.02.15v3.57c-1.22-1.29-2.95-2.11-4.85-2.11-3.27,0-5.99,2.37-6.55,5.48h-3.69c-.27,0-.5.22-.5.5s.22.5.5.5h3.58v.19c0,3.68,3,6.66,6.66,6.66s6.66-3,6.66-6.66c0-1.17-.3-2.26-.83-3.22,0-.02.01-.04.01-.06h.05ZM22.9,21.37v3.88h-.93v-3.85c.32-.01.6-.02.93-.02ZM19.02,31.06c0,1.95-1.59,3.54-3.54,3.54s-3.54-1.59-3.54-3.54,1.59-3.54,3.54-3.54,3.54,1.59,3.54,3.54ZM15.79,26.1l-.22.44h-.09c-1.31,0-2.47.56-3.29,1.43l-2.1-2.4v-1.65c.85-.41,3.95-1.77,8.94-2.31v3.64h-1.84c-.6,0-1.13.32-1.39.86ZM20.02,25.26v-9.45h.96v9.45h-.96ZM32.26,34.72c-3.13,0-5.67-2.55-5.67-5.67s2.55-5.67,5.67-5.67,5.67,2.55,5.67,5.67-2.55,5.67-5.67,5.67h0Z"/>
      <path class="st0" d="M12.1,24.06h-.8c-.27,0-.5.22-.5.5s.22.5.5.5h.8c.27,0,.5-.22.5-.5s-.22-.5-.5-.5Z"/>
    </g>
  </g>
</svg>